<?xml version="1.0" encoding="UTF-8"?>
<!-- Generated by Pixelmator Pro 3.7.1 -->
<svg width="473" height="154" viewBox="0 0 473 154" xmlns="http://www.w3.org/2000/svg">
    <g id="hsas">
        <g id="Group">
            <path id="Path" fill="#1d1d1b" stroke="none" d="M 56.080891 119.624756 L 48.515743 117.644432 L 48.520493 105.600983 C 34.472961 99.982918 28.493977 94.55481 28.493977 94.55481 C 24.751766 99.89743 22.695452 106.056885 22.695452 106.056885 C 28.750422 118.575233 39.459404 126.866974 54.28577 128.833069 C 77.703072 131.934158 99.201775 115.478897 102.302872 92.075836 C 103.746567 81.243378 102.003685 69.347145 91.603386 57.351181 C 91.603386 57.351181 90.102699 56.990257 86.631187 57.170723 C 82.214615 57.588631 77.665077 59.260277 74.920158 61.0364 C 72.198982 62.803024 70.570084 65.111038 70.175919 68.093414 C 69.962212 69.69857 70.251892 71.175507 71.035484 72.509972 C 71.814316 73.853935 73.386238 74.9842 75.732239 75.915001 C 77.237671 76.484886 79.241745 77.201981 81.749214 78.061546 C 84.247185 78.925873 86.341492 79.704704 88.02739 80.398056 C 91.342186 81.803764 93.773682 83.556145 95.312347 85.659943 C 96.846275 87.768501 97.425652 90.247475 97.040985 93.087372 C 96.7323 95.471375 95.83474 97.760384 94.35305 99.968674 C 92.876122 102.172203 90.981262 103.972069 88.66851 105.373032 C 86.19902 106.873703 83.397118 107.937485 80.258034 108.559601 C 77.128448 109.181717 73.799393 109.732605 69.596535 109.732605 C 65.792587 109.552139 63.237633 109.276703 59.538162 108.469376 C 59.538162 108.469376 57.823776 108.11795 56.080891 107.557564"/>
            <path id="path1" fill="#1d1d1b" stroke="none" d="M 56.080891 101.2509 C 57.75729 101.906265 58.360413 102.020233 61.784439 102.765823 C 61.874664 102.856064 67.530724 103.948334 71.111465 103.948334 C 76.283127 103.948334 80.766182 103.08876 83.796036 101.40287 C 86.825897 99.716972 88.554527 97.280731 88.977188 94.103653 C 89.200394 92.427261 88.891701 90.964569 88.055885 89.710838 C 87.220062 88.466599 85.890343 87.450317 84.066727 86.66198 C 82.542297 86.020874 80.713936 85.346504 78.591141 84.657906 C 76.468338 83.974045 74.454758 83.266449 72.540916 82.539856 C 68.836693 81.186386 66.07753 79.334282 64.253914 76.993027 C 62.439796 74.651772 61.741695 71.944839 62.140614 68.876991 C 62.82922 63.705338 66.020546 59.027573 70.617569 55.916977 C 75.081627 53.276535 77.86454 51.956322 84.185455 51.039764 C 79.180008 47.535004 74.929657 45.350464 65.536148 44.082489 C 42.114098 40.914902 20.605894 57.431908 17.50005 80.82547 C 16.711716 86.780708 17.191366 92.598221 18.725292 98.031082 C 18.725292 98.031082 27.862358 73.174835 56.071396 59.288773 L 56.071396 63.81456"/>
            <path id="path2" fill="#1d1d1b" stroke="none" d="M 48.525242 98.895393 L 48.525242 95.219673 L 48.534737 72.187042 C 48.534737 72.187042 40.87936 76.727081 31.918001 88.908257 C 33.067257 90.822098 40.295231 95.780052 48.525242 98.895393"/>
            <path id="path3" fill="#1d1d1b" stroke="none" d="M 10.158102 86.415031 C 10.158102 60.02961 30.650021 38.564156 56.603283 36.778534 L 56.603283 16.790009 C 25.031958 18.656357 0 44.832825 0 76.84581 C 0 108.673584 24.742268 134.379883 56.057148 136.512207 L 56.152126 136.008789 C 30.412571 134.004715 10.158102 112.648483 10.158102 86.415031"/>
        </g>
        <g id="g1">
            <path id="path4" fill="#1d1d1b" stroke="none" d="M 135.051956 63.942787 L 135.051956 46.931885 L 131.19101 46.931885 L 131.19101 53.480751 L 125.321259 53.480751 L 125.321259 46.931885 L 121.488815 46.931885 L 121.488815 63.942787 L 125.321259 63.942787 L 125.321259 56.847786 L 131.19101 56.847786 L 131.19101 63.942787 Z"/>
            <path id="path5" fill="#1d1d1b" stroke="none" d="M 150.319977 57.474655 C 150.319977 53.172058 147.294861 50.693085 144.032303 50.693085 C 140.745987 50.693085 137.720886 53.172058 137.720886 57.474655 C 137.720886 61.777245 140.745987 64.260971 144.032303 64.260971 C 147.294861 64.256226 150.319977 61.777245 150.319977 57.474655 Z M 141.662552 57.474655 C 141.662552 55.233124 142.441391 53.794174 144.037048 53.794174 C 145.604218 53.794174 146.411545 55.228386 146.411545 57.474655 C 146.411545 59.720932 145.599472 61.155128 144.037048 61.155128 C 142.441391 61.150375 141.662552 59.716179 141.662552 57.474655 Z"/>
            <path id="path6" fill="#1d1d1b" stroke="none" d="M 159.172104 53.794174 C 159.770462 53.794174 160.345108 54.031624 160.97197 54.549271 L 162.719604 52.17952 C 161.860031 51.291458 160.530304 50.693085 158.939392 50.693085 C 155.368149 50.693085 152.210068 53.172058 152.210068 57.474655 C 152.210068 61.78199 155.002487 64.260971 158.602219 64.260971 C 160.012665 64.260971 161.655823 63.738579 162.904816 62.641556 L 161.366135 60.214821 C 160.739273 60.708725 159.984177 61.150375 159.04863 61.150375 C 157.376984 61.150375 156.151733 59.716179 156.151733 57.469902 C 156.151733 55.223633 157.319992 53.794174 159.172104 53.794174 Z"/>
            <path id="path7" fill="#1d1d1b" stroke="none" d="M 168.80307 45.659149 L 164.970627 45.659149 L 164.970627 63.942787 L 168.80307 63.942787 L 168.80307 55.204628 C 169.638885 54.397308 170.237259 53.950905 171.201309 53.950905 C 172.298325 53.950905 172.792221 54.525528 172.792221 56.401375 L 172.792221 63.942787 L 176.624664 63.942787 L 176.624664 55.912231 C 176.624664 52.673424 175.423172 50.693085 172.60701 50.693085 C 170.859375 50.693085 169.581894 51.604897 168.617844 52.464462 L 168.798309 50.14695 L 168.798309 45.659149 Z"/>
            <path id="path8" fill="#1d1d1b" stroke="none" d="M 183.786148 61.411568 C 182.689133 61.411568 181.620605 60.946175 180.447601 60.058105 L 178.72847 62.456345 C 180.034439 63.524872 181.986267 64.256226 183.686417 64.256226 C 187.153183 64.256226 189.00528 62.427856 189.00528 60.081848 C 189.00528 57.707352 187.153183 56.795547 185.510025 56.192429 C 184.180298 55.698532 182.983566 55.389847 182.983566 54.549271 C 182.983566 53.898659 183.453705 53.53299 184.441513 53.53299 C 185.353302 53.53299 186.241379 53.950905 187.181671 54.630005 L 188.900803 52.336243 C 187.780045 51.50042 186.317352 50.693085 184.337036 50.693085 C 181.335663 50.693085 179.379074 52.336243 179.379074 54.739227 C 179.379074 56.881035 181.231186 57.949554 182.798355 58.547928 C 184.128067 59.065567 185.434052 59.459732 185.434052 60.319298 C 185.429291 60.99366 184.930649 61.411568 183.786148 61.411568 Z"/>
            <path id="path9" fill="#1d1d1b" stroke="none" d="M 197.653214 53.794174 C 198.256332 53.794174 198.830963 54.031624 199.453079 54.549271 L 201.200714 52.17952 C 200.341141 51.291458 199.016174 50.693085 197.420502 50.693085 C 193.849274 50.693085 190.691193 53.172058 190.691193 57.474655 C 190.691193 61.78199 193.483597 64.260971 197.083328 64.260971 C 198.49379 64.260971 200.136932 63.738579 201.385925 62.641556 L 199.84726 60.214821 C 199.220383 60.708725 198.470047 61.150375 197.529739 61.150375 C 195.862839 61.150375 194.632843 59.716179 194.632843 57.469902 C 194.632843 55.223633 195.805847 53.794174 197.653214 53.794174 Z"/>
            <path id="path10" fill="#1d1d1b" stroke="none" d="M 207.288925 45.659149 L 203.456497 45.659149 L 203.456497 63.942787 L 207.288925 63.942787 L 207.288925 55.204628 C 208.124756 54.397308 208.723129 53.950905 209.68718 53.950905 C 210.784195 53.950905 211.278091 54.525528 211.278091 56.401375 L 211.278091 63.942787 L 215.110519 63.942787 L 215.110519 55.912231 C 215.110519 52.673424 213.909027 50.693085 211.092865 50.693085 C 209.345245 50.693085 208.067764 51.604897 207.103714 52.464462 L 207.28418 50.14695 L 207.28418 45.659149 Z"/>
            <path id="path11" fill="#1d1d1b" stroke="none" d="M 222.23877 64.256226 C 224.014893 64.256226 225.211639 63.444138 226.308655 62.138168 L 226.389389 62.138168 L 226.674332 63.942787 L 229.803909 63.942787 L 229.803909 51.00177 L 225.971466 51.00177 L 225.971466 59.559464 C 225.216385 60.575752 224.637009 60.99366 223.677704 60.99366 C 222.556961 60.99366 222.058304 60.395287 222.058304 58.543182 L 222.058304 51.00177 L 218.225861 51.00177 L 218.225861 59.037071 C 218.225861 62.275894 219.422607 64.256226 222.23877 64.256226 Z"/>
            <path id="path12" fill="#1d1d1b" stroke="none" d="M 233.023727 45.659149 L 233.023727 59.925133 C 233.023727 62.537079 233.911789 64.260971 236.547485 64.260971 C 237.407059 64.260971 238.057663 64.127998 238.480331 63.947533 L 238.010178 61.107635 C 237.801224 61.159874 237.696747 61.159874 237.544785 61.159874 C 237.231354 61.159874 236.865662 60.898682 236.865662 60.091347 L 236.865662 45.668655 L 233.023727 45.668655 Z"/>
            <path id="path13" fill="#1d1d1b" stroke="none" d="M 246.149963 64.256226 C 247.683884 64.256226 249.407761 63.710083 250.737488 62.793533 L 249.460007 60.466515 C 248.519714 61.045898 247.631653 61.330841 246.667587 61.330841 C 244.943726 61.330841 243.637756 60.466515 243.300568 58.514679 L 251.046173 58.514679 C 251.126907 58.201256 251.202896 57.574379 251.202896 56.895279 C 251.202896 53.376274 249.374527 50.688339 245.698807 50.688339 C 242.592972 50.688339 239.596344 53.27179 239.596344 57.469902 C 239.601089 61.753502 242.445755 64.256226 246.149963 64.256226 Z M 245.784286 53.613724 C 247.318222 53.613724 247.949829 54.658501 247.949829 56.144936 L 243.281586 56.144936 C 243.54277 54.421051 244.582794 53.613724 245.784286 53.613724 Z"/>
            <path id="path14" fill="#1d1d1b" stroke="none" d="M 125.079056 92.375023 L 130.269714 92.375023 L 131.314499 96.421173 L 135.379639 96.421173 L 130.060745 79.410263 L 125.439987 79.410263 L 120.121109 96.421173 L 124.034271 96.421173 L 125.079056 92.375023 Z M 126.280556 87.806488 C 126.750702 86.111099 127.192352 84.130768 127.610268 82.330902 L 127.714745 82.330902 C 128.161148 84.097527 128.626556 86.111099 129.101456 87.806488 L 129.490875 89.373665 L 125.867393 89.373665 L 126.280556 87.806488 Z"/>
            <path id="path15" fill="#1d1d1b" stroke="none" d="M 142.43663 96.421173 L 141.966492 93.576523 C 141.757523 93.628754 141.653046 93.628754 141.496338 93.628754 C 141.182907 93.628754 140.81723 93.367561 140.81723 92.560234 L 140.81723 78.13279 L 136.984802 78.13279 L 136.984802 92.403519 C 136.984802 95.010712 137.872849 96.734604 140.508545 96.734604 C 141.363373 96.729851 142.013977 96.601639 142.43663 96.421173 Z"/>
            <path id="path16" fill="#1d1d1b" stroke="none" d="M 156.678879 89.715591 C 156.678879 85.750175 154.727036 83.166718 151.592697 83.166718 C 150.391205 83.166718 149.16597 83.71286 148.173431 84.600922 L 148.277908 82.615837 L 148.277908 78.128036 L 144.445465 78.128036 L 144.445465 96.416428 L 147.442078 96.416428 L 147.755508 95.062958 L 147.859985 95.062958 C 148.876266 96.155228 150.077759 96.729851 151.227036 96.729851 C 154.01944 96.729851 156.678879 94.174896 156.678879 89.715591 Z M 150.343704 93.600266 C 149.6931 93.600266 148.961761 93.391312 148.282639 92.764442 L 148.282639 87.469307 C 149.009247 86.657234 149.716858 86.291557 150.500427 86.291557 C 152.039108 86.291557 152.741959 87.469307 152.741959 89.791565 C 152.741959 92.451004 151.673431 93.600266 150.343704 93.600266 Z"/>
            <path id="path17" fill="#1d1d1b" stroke="none" d="M 168.399399 92.555489 C 168.399399 90.180984 166.547302 89.26918 164.904129 88.670807 C 163.574417 88.172165 162.37767 87.86348 162.37767 87.027657 C 162.37767 86.377045 162.847824 86.016121 163.835602 86.016121 C 164.747421 86.016121 165.635483 86.434029 166.57579 87.108391 L 168.294922 84.814621 C 167.174149 83.978798 165.711472 83.171471 163.731125 83.171471 C 160.729782 83.171471 158.773178 84.814621 158.773178 87.217613 C 158.773178 89.359413 160.62529 90.42794 162.192459 91.026306 C 163.522171 91.548706 164.82341 91.938118 164.82341 92.797684 C 164.82341 93.476791 164.329514 93.894699 163.180237 93.894699 C 162.083221 93.894699 161.014709 93.424553 159.841705 92.541245 L 158.122574 94.939484 C 159.423798 96.008011 161.380386 96.739349 163.080521 96.739349 C 166.552032 96.729851 168.399399 94.906235 168.399399 92.555489 Z"/>
            <path id="path18" fill="#1d1d1b" stroke="none" d="M 178.68573 96.26445 L 178.087357 93.472038 C 177.750168 93.600266 177.275269 93.733231 176.857361 93.733231 C 175.841064 93.733231 175.19046 93.134865 175.19046 91.672173 L 175.19046 86.476768 L 178.29631 86.476768 L 178.29631 83.480156 L 175.19046 83.480156 L 175.19046 80.037132 L 172.008636 80.037132 L 171.566971 83.480156 L 169.586655 83.636871 L 169.586655 86.476768 L 171.358017 86.476768 L 171.358017 91.724411 C 171.358017 94.721024 172.611755 96.729851 175.822083 96.729851 C 177.066315 96.729851 178.006607 96.468658 178.68573 96.26445 Z"/>
            <path id="path19" fill="#1d1d1b" stroke="none" d="M 187.974762 95.0867 L 188.26445 96.421173 L 191.398788 96.421173 L 191.398788 89.012733 C 191.398788 85.047325 189.570419 83.166718 186.25563 83.166718 C 184.223053 83.166718 182.366196 83.869568 180.727783 84.862114 L 182.081253 87.38858 C 183.334991 86.657234 184.427261 86.220329 185.524277 86.220329 C 186.906235 86.220329 187.485611 86.946922 187.5616 88.096184 C 182.44693 88.618568 180.286133 90.105003 180.286133 92.816681 C 180.286133 95.005966 181.772568 96.729851 184.118576 96.729851 C 185.576508 96.729851 186.801758 96.050751 187.898773 95.0867 L 187.974762 95.0867 Z M 187.5616 92.659966 C 186.882492 93.339066 186.307861 93.756981 185.4198 93.756981 C 184.50798 93.756981 183.933365 93.362816 183.933365 92.531738 C 183.933365 91.5392 184.816681 90.755615 187.556854 90.389946 L 187.556854 92.659966 Z"/>
            <path id="path20" fill="#1d1d1b" stroke="none" d="M 202.853363 95.138947 L 203.114563 96.416428 L 206.244156 96.416428 L 206.244156 78.128036 L 202.411713 78.128036 L 202.411713 82.535103 L 202.56842 84.520187 C 201.680359 83.684357 200.81604 83.157219 199.386597 83.157219 C 196.646423 83.157219 194.015488 85.716927 194.015488 89.943542 C 194.015488 94.170143 196.100281 96.725105 199.310608 96.725105 C 200.564346 96.725105 201.841827 96.04599 202.758392 95.134186 L 202.853363 95.134186 Z M 202.411713 92.422516 C 201.784836 93.286835 201.134232 93.600266 200.293655 93.600266 C 198.80722 93.600266 197.947647 92.451004 197.947647 89.896049 C 197.947647 87.445572 199.044678 86.29631 200.265167 86.29631 C 200.972763 86.29631 201.727844 86.505264 202.406952 87.132133 L 202.406952 92.422516 Z"/>
            <path id="path21" fill="#1d1d1b" stroke="none" d="M 217.537262 96.26445 L 216.934128 93.472038 C 216.596954 93.600266 216.126816 93.733231 215.704147 93.733231 C 214.692596 93.733231 214.037262 93.134865 214.037262 91.672173 L 214.037262 86.476768 L 217.143082 86.476768 L 217.143082 83.480156 L 214.037262 83.480156 L 214.037262 80.037132 L 210.855423 80.037132 L 210.413773 83.480156 L 208.428696 83.636871 L 208.428696 86.476768 L 210.204819 86.476768 L 210.204819 91.724411 C 210.204819 94.721024 211.458542 96.729851 214.664108 96.729851 C 215.922607 96.729851 216.858154 96.468658 217.537262 96.26445 Z"/>
            <path id="path22" fill="#1d1d1b" stroke="none" d="M 219.341873 88.461853 L 225.762527 88.461853 L 225.762527 91.178268 L 219.341873 91.178268 Z"/>
            <path id="path23" fill="#1d1d1b" stroke="none" d="M 240.128235 91.463211 C 240.128235 89.060226 238.822266 87.683022 236.761185 86.842445 L 234.567154 85.954376 C 233.109207 85.35601 231.983704 84.990334 231.983704 83.95031 C 231.983704 82.981506 232.819534 82.406883 234.149246 82.406883 C 235.502701 82.406883 236.547485 82.905525 237.673004 83.765099 L 239.624832 81.338364 C 238.162155 79.875671 236.101089 79.092079 234.149246 79.092079 C 230.601746 79.092079 228.094269 81.338364 228.094269 84.15451 C 228.094269 86.628746 229.76593 88.091423 231.518311 88.794281 L 233.736084 89.734581 C 235.222519 90.36145 236.186569 90.698624 236.186569 91.767151 C 236.186569 92.783432 235.40773 93.410309 233.812073 93.410309 C 232.401611 93.410309 230.839188 92.683716 229.609207 91.638931 L 227.419922 94.269875 C 229.139053 95.889282 231.485062 96.72036 233.702835 96.72036 C 237.777481 96.729851 240.128235 94.279373 240.128235 91.463211 Z"/>
            <path id="path24" fill="#1d1d1b" stroke="none" d="M 242.716446 83.480156 L 246.548859 83.480156 L 246.548859 96.421173 L 242.716446 96.421173 Z"/>
            <path id="path25" fill="#1d1d1b" stroke="none" d="M 244.620773 77.586647 C 243.343292 77.586647 242.403 78.393974 242.403 79.571732 C 242.403 80.739983 243.338562 81.580559 244.620773 81.580559 C 245.926743 81.580559 246.838577 80.744736 246.838577 79.571732 C 246.838577 78.393974 245.926743 77.586647 244.620773 77.586647 Z"/>
            <path id="path26" fill="#1d1d1b" stroke="none" d="M 261.370483 97.280731 C 261.370483 94.958481 259.622864 93.994431 256.44104 93.994431 L 254.351486 93.994431 C 252.917282 93.994431 252.399628 93.681 252.399628 93.025642 C 252.399628 92.579239 252.527863 92.346527 252.865051 92.056839 C 253.439667 92.237305 253.962067 92.322784 254.43222 92.322784 C 257.272095 92.322784 259.518372 90.936081 259.518372 87.963211 C 259.518372 87.284096 259.337921 86.657234 259.100494 86.267815 L 261.16153 86.267815 L 261.16153 83.480156 L 256.44104 83.480156 C 255.861664 83.271202 255.163544 83.166718 254.43222 83.166718 C 251.639801 83.166718 249.084839 84.733887 249.084839 87.839729 C 249.084839 89.35466 249.92067 90.579903 250.832474 91.206772 L 250.832474 91.311249 C 249.996643 91.881134 249.369766 92.797684 249.369766 93.733231 C 249.369766 94.806519 249.892181 95.485619 250.571274 95.927269 L 250.571274 96.036499 C 249.369766 96.710861 248.719162 97.570427 248.719162 98.643692 C 248.719162 100.937462 251.117416 101.930008 254.142532 101.930008 C 258.578064 101.920509 261.370483 99.968674 261.370483 97.280731 Z M 254.43222 85.750175 C 255.448502 85.750175 256.203583 86.476768 256.203583 87.834984 C 256.203583 89.26918 255.448502 90.000526 254.43222 90.000526 C 253.411163 90.000526 252.656097 89.26918 252.656097 87.834984 C 252.656097 86.453026 253.411163 85.750175 254.43222 85.750175 Z M 251.872498 98.035828 C 251.872498 97.565674 252.109955 97.171509 252.580093 96.758347 C 252.998001 96.862823 253.515656 96.915062 254.403717 96.915062 L 255.733429 96.915062 C 257.015656 96.915062 257.713745 97.124023 257.713745 97.931351 C 257.713745 98.819412 256.464783 99.522263 254.740875 99.522263 C 253.021744 99.522263 251.872498 98.99987 251.872498 98.035828 Z"/>
            <path id="path27" fill="#1d1d1b" stroke="none" d="M 274.81015 87.683022 C 275.645966 86.847191 276.377319 86.429276 277.027954 86.429276 C 278.124969 86.429276 278.623596 86.999161 278.623596 88.879761 L 278.623596 96.421173 L 282.456055 96.421173 L 282.456055 88.385872 C 282.456055 85.151802 281.207062 83.166718 278.414642 83.166718 C 276.690765 83.166718 275.489258 84.159256 274.344757 85.33226 C 273.689392 83.95031 272.592377 83.166718 270.768738 83.166718 C 269.073364 83.166718 267.928864 84.078529 266.85556 85.151802 L 266.755859 85.151802 L 266.489929 83.484901 L 263.365082 83.484901 L 263.365082 96.425919 L 267.192749 96.425919 L 267.192749 87.687767 C 268.004852 86.851944 268.759918 86.434029 269.38681 86.434029 C 270.483826 86.434029 270.982452 87.003906 270.982452 88.884514 L 270.982452 96.425919 L 274.814911 96.425919 L 274.814911 87.683022 Z"/>
            <path id="path28" fill="#1d1d1b" stroke="none" d="M 292.718628 95.0867 L 292.794586 95.0867 L 293.08429 96.421173 L 296.209106 96.421173 L 296.209106 89.012733 C 296.209106 85.047325 294.385529 83.166718 291.075439 83.166718 C 289.042908 83.166718 287.186035 83.869568 285.542877 84.862114 L 286.896332 87.38858 C 288.150085 86.657234 289.247101 86.220329 290.344116 86.220329 C 291.721344 86.220329 292.295959 86.946922 292.376678 88.096184 C 287.262024 88.618568 285.096497 90.105003 285.096497 92.816681 C 285.096497 95.005966 286.582916 96.729851 288.928925 96.729851 C 290.391602 96.729851 291.621613 96.055496 292.718628 95.0867 Z M 292.376678 90.389946 L 292.376678 92.659966 C 291.697571 93.339066 291.122955 93.756981 290.234894 93.756981 C 289.323059 93.756981 288.748474 93.362816 288.748474 92.531738 C 288.748474 91.5392 289.636536 90.755615 292.376678 90.389946 Z"/>
            <path id="path29" fill="#1d1d1b" stroke="none" d="M 303.289886 88.903511 C 303.968994 87.160629 305.170471 86.529007 306.139282 86.529007 C 306.685394 86.529007 307.074829 86.604996 307.544983 86.737968 L 308.171844 83.423172 C 307.806183 83.266449 307.359772 83.161972 306.628418 83.161972 C 305.298706 83.161972 303.892975 83.997795 302.957458 85.74543 L 302.848236 85.74543 L 302.591766 83.480156 L 299.457458 83.480156 L 299.457458 96.421173 L 303.289886 96.421173 L 303.289886 88.903511 Z"/>
            <path id="path30" fill="#1d1d1b" stroke="none" d="M 311.842834 77.586647 C 310.565338 77.586647 309.625031 78.393974 309.625031 79.571732 C 309.625031 80.739983 310.560608 81.580559 311.842834 81.580559 C 313.148804 81.580559 314.060608 80.744736 314.060608 79.571732 C 314.060608 78.393974 313.144043 77.586647 311.842834 77.586647 Z"/>
            <path id="path31" fill="#1d1d1b" stroke="none" d="M 309.938477 83.480156 L 313.770935 83.480156 L 313.770935 96.421173 L 309.938477 96.421173 Z"/>
            <path id="path32" fill="#1d1d1b" stroke="none" d="M 328.734985 96.421173 L 328.734985 88.385872 C 328.734985 85.151802 327.533508 83.166718 324.717346 83.166718 C 322.974487 83.166718 321.668518 84.078529 320.571503 85.123306 L 320.46701 85.123306 L 320.205811 83.480156 L 317.076202 83.480156 L 317.076202 96.421173 L 320.908661 96.421173 L 320.908661 87.683022 C 321.744476 86.870941 322.342865 86.429276 323.306885 86.429276 C 324.4039 86.429276 324.902557 86.999161 324.902557 88.879761 L 324.902557 96.421173 L 328.734985 96.421173 Z"/>
            <path id="path33" fill="#1d1d1b" stroke="none" d="M 338.522675 93.994431 L 336.437866 93.994431 C 334.998901 93.994431 334.476532 93.681 334.476532 93.025642 C 334.476532 92.579239 334.609528 92.346527 334.951447 92.056839 C 335.521332 92.237305 336.043701 92.322784 336.509125 92.322784 C 339.358521 92.322784 341.600037 90.936081 341.600037 87.963211 C 341.600037 87.284096 341.419556 86.657234 341.182129 86.267815 L 343.243195 86.267815 L 343.243195 83.480156 L 338.522675 83.480156 C 337.948059 83.271202 337.240448 83.166718 336.509125 83.166718 C 333.721436 83.166718 331.166504 84.733887 331.166504 87.839729 C 331.166504 89.35466 331.997559 90.579903 332.909363 91.206772 L 332.909363 91.311249 C 332.073547 91.881134 331.446686 92.797684 331.446686 93.733231 C 331.446686 94.806519 331.969086 95.485619 332.648193 95.927269 L 332.648193 96.036499 C 331.446686 96.710861 330.796051 97.570427 330.796051 98.643692 C 330.796051 100.937462 333.194305 101.930008 336.219421 101.930008 C 340.654968 101.930008 343.447388 99.978165 343.447388 97.290237 C 343.456879 94.958481 341.704529 93.994431 338.522675 93.994431 Z M 336.513855 85.750175 C 337.534882 85.750175 338.289978 86.476768 338.289978 87.834984 C 338.289978 89.26918 337.534882 90.000526 336.513855 90.000526 C 335.497589 90.000526 334.747223 89.26918 334.747223 87.834984 C 334.742493 86.453026 335.497589 85.750175 336.513855 85.750175 Z M 336.827301 99.522263 C 335.108154 99.522263 333.958893 98.99987 333.958893 98.035828 C 333.958893 97.565674 334.19632 97.171509 334.661743 96.758347 C 335.084412 96.862823 335.606812 96.915062 336.490112 96.915062 L 337.819824 96.915062 C 339.09729 96.915062 339.804932 97.124023 339.804932 97.931351 C 339.800171 98.819412 338.546417 99.522263 336.827301 99.522263 Z"/>
            <path id="path34" fill="#1d1d1b" stroke="none" d="M 356.193695 89.373665 C 356.193695 85.854652 354.365326 83.161972 350.689606 83.161972 C 347.58374 83.161972 344.587128 85.74543 344.587128 89.948288 C 344.587128 94.227135 347.427063 96.729851 351.131256 96.729851 C 352.669952 96.729851 354.393829 96.183716 355.723541 95.267159 L 354.446045 92.944901 C 353.505768 93.519531 352.622467 93.809219 351.653656 93.809219 C 349.934509 93.809219 348.623779 92.944901 348.291382 90.993065 L 356.032227 90.993065 C 356.112946 90.679634 356.193695 90.052765 356.193695 89.373665 Z M 348.262878 88.618568 C 348.524078 86.894684 349.568848 86.087357 350.765594 86.087357 C 352.30426 86.087357 352.931122 87.132133 352.931122 88.618568 L 348.262878 88.618568 Z"/>
            <path id="path35" fill="#1d1d1b" stroke="none" d="M 370.521423 96.421173 L 370.521423 88.385872 C 370.521423 85.151802 369.319916 83.166718 366.499023 83.166718 C 364.756134 83.166718 363.450165 84.078529 362.353149 85.123306 L 362.248657 85.123306 L 361.987457 83.480156 L 358.853149 83.480156 L 358.853149 96.421173 L 362.690308 96.421173 L 362.690308 87.683022 C 363.521393 86.870941 364.124512 86.429276 365.088562 86.429276 C 366.185577 86.429276 366.679474 86.999161 366.679474 88.879761 L 366.679474 96.421173 L 370.521423 96.421173 Z"/>
            <path id="path36" fill="#1d1d1b" stroke="none" d="M 473 115.844559 L 470.89621 115.844559 L 468.611938 122.911072 C 468.269989 124.041336 467.899597 125.352058 467.533905 126.510803 L 467.429443 126.510803 C 467.035248 125.328308 466.588867 124.01284 466.194672 122.911072 L 463.592255 115.844559 L 461.360199 115.844559 L 466.484406 128.638351 L 466.194672 129.583405 C 465.672302 131.160065 464.751007 132.314072 463.302551 132.314072 C 462.989105 132.314072 462.594971 132.209595 462.33374 132.128876 L 461.911102 133.838516 C 462.33374 133.995224 462.832397 134.099701 463.407013 134.099701 C 465.980957 134.099701 467.296448 132.181107 468.18927 129.659393 L 473 115.844559 Z"/>
            <path id="path37" fill="#1d1d1b" stroke="none" d="M 396.864105 115.844559 L 399.020142 115.844559 L 399.020142 128.614624 L 396.864105 128.614624 Z"/>
            <path id="path38" fill="#1d1d1b" stroke="none" d="M 393.240601 128.614624 L 393.240601 120.522324 C 393.240601 117.264511 392.034363 115.531128 389.351166 115.531128 C 387.589325 115.531128 386.278595 116.476181 385.067596 117.687172 L 384.986847 117.687172 L 384.806396 115.849319 L 383.020782 115.849319 L 383.020782 128.619354 L 385.176819 128.619354 L 385.176819 119.368317 C 386.463806 118.081329 387.356598 117.397491 388.667328 117.397491 C 390.34848 117.397491 391.084564 118.418518 391.084564 120.812012 L 391.084564 128.614624 L 393.240601 128.614624 Z"/>
            <path id="path39" fill="#1d1d1b" stroke="none" d="M 292.699646 120.417847 C 293.568665 118.261795 294.855652 117.478218 295.933685 117.478218 C 296.456085 117.478218 296.745758 117.554199 297.168427 117.687172 L 297.586334 115.797073 C 297.168427 115.616608 296.774261 115.535873 296.223389 115.535873 C 294.779663 115.535873 293.464203 116.561661 292.599884 118.162071 L 292.519165 118.162071 L 292.338715 115.849319 L 290.55307 115.849319 L 290.55307 128.619354 L 292.704346 128.619354 L 292.704346 120.417847 Z"/>
            <path id="path40" fill="#1d1d1b" stroke="none" d="M 372.406769 128.928055 C 375.925781 128.928055 378.580444 127.037949 378.580444 121.491119 L 378.580444 111.380508 L 376.476654 111.380508 L 376.476654 121.548111 C 376.476654 125.69873 374.686279 127.014206 372.402008 127.014206 C 370.141479 127.014206 368.379639 125.703476 368.379639 121.548111 L 368.379639 111.380508 L 366.199829 111.380508 L 366.199829 121.491119 C 366.20459 127.037949 368.887756 128.928055 372.406769 128.928055 Z"/>
            <path id="path41" fill="#1d1d1b" stroke="none" d="M 125.952873 111.380508 L 120.121109 128.614624 L 122.353142 128.614624 L 124.010536 123.357475 L 130.288712 123.357475 L 131.917603 128.614624 L 134.25412 128.614624 L 128.422363 111.380508 L 125.952873 111.380508 Z M 129.737823 121.600342 L 124.561417 121.600342 L 125.373497 118.974152 C 126.005104 117.055557 126.555992 115.165459 127.083138 113.166122 L 127.187614 113.166122 C 127.74324 115.160706 128.294128 117.055557 128.925751 118.974152 L 129.737823 121.600342 Z"/>
            <path id="path42" fill="#1d1d1b" stroke="none" d="M 356.616364 128.614624 L 356.616364 120.522324 C 356.616364 117.264511 355.410126 115.531128 352.726929 115.531128 C 350.965057 115.531128 349.654327 116.476181 348.443329 117.687172 L 348.36261 117.687172 L 348.182129 115.849319 L 346.396515 115.849319 L 346.396515 128.619354 L 348.547821 128.619354 L 348.547821 119.368317 C 349.834808 118.081329 350.7276 117.397491 352.04306 117.397491 C 353.724243 117.397491 354.460327 118.418518 354.460327 120.812012 L 354.460327 128.614624 L 356.616364 128.614624 Z"/>
            <path id="path43" fill="#1d1d1b" stroke="none" d="M 430.045319 118.157318 L 429.9646 118.157318 L 429.784149 115.844559 L 427.998505 115.844559 L 427.998505 128.614624 L 430.154572 128.614624 L 430.154572 120.417847 C 431.01886 118.261795 432.310608 117.478218 433.383881 117.478218 C 433.90625 117.478218 434.195953 117.554199 434.618622 117.687172 L 435.04129 115.797073 C 434.618622 115.616608 434.224426 115.535873 433.673553 115.535873 C 432.225128 115.531128 430.909637 116.556915 430.045319 118.157318 Z"/>
            <path id="path44" fill="#1d1d1b" stroke="none" d="M 440.265167 127.246902 C 438.740723 127.246902 437.610474 126.61528 436.508698 125.722481 L 435.430695 127.170921 C 436.636932 128.168213 438.375092 128.9328 440.189178 128.9328 C 443.209564 128.9328 444.862213 127.199409 444.862213 125.1241 C 444.862213 122.706863 442.815369 121.947021 440.972778 121.263168 C 439.529083 120.71228 438.132874 120.265869 438.132874 119.054886 C 438.132874 118.08609 438.868958 117.217026 440.474121 117.217026 C 441.604401 117.217026 442.520935 117.691925 443.390015 118.34729 L 444.415802 116.979568 C 443.442261 116.191238 442.050812 115.535873 440.450378 115.535873 C 437.691223 115.535873 436.062286 117.112549 436.062286 119.159363 C 436.062286 121.315414 438.061646 122.179718 439.871002 122.839836 C 441.262451 123.362228 442.786896 123.941605 442.786896 125.257072 C 442.786896 126.354095 441.94632 127.246902 440.265167 127.246902 Z"/>
            <path id="path45" fill="#1d1d1b" stroke="none" d="M 447.854065 115.844559 L 450.010132 115.844559 L 450.010132 128.614624 L 447.854065 128.614624 Z"/>
            <path id="path46" fill="#1d1d1b" stroke="none" d="M 450.456543 111.82692 C 450.456543 110.986343 449.801178 110.435455 448.960571 110.435455 C 448.119995 110.435455 447.46463 110.986343 447.46463 111.82692 C 447.46463 112.638992 448.119995 113.223122 448.960571 113.223122 C 449.801178 113.218369 450.456543 112.638992 450.456543 111.82692 Z"/>
            <path id="path47" fill="#1d1d1b" stroke="none" d="M 209.236008 128.928055 C 210.024353 128.928055 210.893402 128.690598 211.601013 128.453156 L 211.183105 126.824234 C 210.760437 126.980957 210.185806 127.166168 209.73941 127.166168 C 208.267212 127.166168 207.76857 126.273354 207.76857 124.696693 L 207.76857 117.6017 L 211.211594 117.6017 L 211.211594 115.839813 L 207.76857 115.839813 L 207.76857 112.26857 L 205.954453 112.26857 L 205.693268 115.839813 L 203.693939 115.96804 L 203.693939 117.596939 L 205.58403 117.596939 L 205.58403 124.663452 C 205.58403 127.194656 206.50058 128.928055 209.236008 128.928055 Z"/>
            <path id="path48" fill="#1d1d1b" stroke="none" d="M 458.339844 128.928055 C 459.128174 128.928055 459.992493 128.690598 460.704834 128.453156 L 460.282166 126.824234 C 459.864288 126.980957 459.284912 127.166168 458.838501 127.166168 C 457.366302 127.166168 456.867676 126.273354 456.867676 124.696693 L 456.867676 117.6017 L 460.305939 117.6017 L 460.305939 115.839813 L 456.867676 115.839813 L 456.867676 112.26857 L 455.053558 112.26857 L 454.787598 115.839813 L 452.79303 115.96804 L 452.79303 117.596939 L 454.683105 117.596939 L 454.683105 124.663452 C 454.687866 127.194656 455.609192 128.928055 458.339844 128.928055 Z"/>
            <path id="path49" fill="#1d1d1b" stroke="none" d="M 407.425842 126.85273 L 407.321381 126.85273 C 406.927216 125.6465 406.509308 124.354767 406.138885 123.096283 L 403.721649 115.844559 L 401.489624 115.844559 L 406.086639 128.614624 L 408.608337 128.614624 L 413.124664 115.844559 L 410.997101 115.844559 L 408.579865 123.096283 C 408.214203 124.359505 407.791534 125.6465 407.425842 126.85273 Z"/>
            <path id="path50" fill="#1d1d1b" stroke="none" d="M 343.243195 121.519615 C 343.243195 117.867638 341.405334 115.531128 338.147491 115.531128 C 335.231628 115.531128 332.420197 118.081329 332.420197 122.255707 C 332.420197 126.430077 335.127136 128.928055 338.541687 128.928055 C 340.275055 128.928055 341.638031 128.324921 342.744537 127.612572 L 341.97995 126.192627 C 341.034912 126.795746 340.009125 127.189919 338.802856 127.189919 C 336.357147 127.189919 334.704468 125.451782 334.547791 122.697357 L 343.162445 122.697357 C 343.219421 122.388672 343.243195 121.966019 343.243195 121.519615 Z M 334.524017 121.282166 C 334.785217 118.708206 336.414124 117.236008 338.204498 117.236008 C 340.199066 117.236008 341.353058 118.684464 341.353058 121.282166 L 334.524017 121.282166 Z"/>
            <path id="path51" fill="#1d1d1b" stroke="none" d="M 424.845184 121.519615 C 424.845184 117.867638 423.007324 115.531128 419.749512 115.531128 C 416.833618 115.531128 414.022217 118.081329 414.022217 122.255707 C 414.022217 126.430077 416.729156 128.928055 420.143677 128.928055 C 421.877045 128.928055 423.244751 128.324921 424.346527 127.612572 L 423.58194 126.192627 C 422.636902 126.795746 421.611115 127.189919 420.404877 127.189919 C 417.959137 127.189919 416.306488 125.451782 416.14975 122.697357 L 424.769196 122.697357 C 424.816681 122.388672 424.845184 121.966019 424.845184 121.519615 Z M 416.121277 121.282166 C 416.382477 118.708206 418.011383 117.236008 419.801727 117.236008 C 421.796326 117.236008 422.955078 118.684464 422.955078 121.282166 L 416.121277 121.282166 Z"/>
            <path id="path52" fill="#1d1d1b" stroke="none" d="M 399.466522 111.82692 C 399.466522 110.986343 398.811188 110.435455 397.970612 110.435455 C 397.130035 110.435455 396.47467 110.986343 396.47467 111.82692 C 396.47467 112.638992 397.130035 113.223122 397.970612 113.223122 C 398.811188 113.218369 399.466522 112.638992 399.466522 111.82692 Z"/>
            <path id="path53" fill="#1d1d1b" stroke="none" d="M 272.943787 128.614624 L 272.943787 120.522324 C 272.943787 117.264511 271.680573 115.531128 269.054352 115.531128 C 267.506195 115.531128 266.190735 116.528412 264.851501 117.976852 C 264.329102 116.452431 263.274841 115.531128 261.332489 115.531128 C 259.808075 115.531128 258.468872 116.476181 257.367096 117.687172 L 257.286377 117.687172 L 257.105896 115.849319 L 255.320267 115.849319 L 255.320267 128.619354 L 257.471558 128.619354 L 257.471558 119.368317 C 258.654083 118.057594 259.732086 117.397491 260.677124 117.397491 C 262.306061 117.397491 263.065887 118.418518 263.065887 120.812012 L 263.065887 128.614624 L 265.221924 128.614624 L 265.221924 119.363571 C 266.404419 118.052841 267.430206 117.392738 268.42749 117.392738 C 270.032654 117.392738 270.792511 118.413773 270.792511 120.807266 L 270.792511 128.609863 L 272.943787 128.609863 Z"/>
            <path id="path54" fill="#1d1d1b" stroke="none" d="M 145.10556 127.351379 L 145.18631 127.351379 C 146.316574 128.348679 147.655792 128.928055 148.838287 128.928055 C 151.754166 128.928055 154.356613 126.377831 154.356613 122.018257 C 154.356613 118.076599 152.594742 115.526382 149.289429 115.526382 C 147.869492 115.526382 146.449539 116.286224 145.295532 117.311996 L 145.347763 114.999237 L 145.347763 109.898819 L 143.191727 109.898819 L 143.191727 128.605103 L 144.92511 128.605103 L 145.10556 127.351379 Z M 145.343018 119.078629 C 146.549271 117.948364 147.679535 117.345245 148.757553 117.345245 C 151.174789 117.345245 152.119843 119.235352 152.119843 122.051498 C 152.119843 125.200089 150.571671 127.118668 148.467865 127.118668 C 147.627289 127.118668 146.473282 126.748253 145.343018 125.779465 L 145.343018 119.078629 Z"/>
            <path id="path55" fill="#1d1d1b" stroke="none" d="M 136.490891 109.90831 L 136.490891 126.040657 C 136.490891 127.907005 137.146255 128.9328 138.775162 128.9328 C 139.354538 128.9328 139.7202 128.852066 140.009903 128.723831 L 139.7202 127.094933 C 139.482758 127.147179 139.378281 127.147179 139.250061 127.147179 C 138.93663 127.147179 138.646942 126.885979 138.646942 126.202118 L 138.646942 109.913071 L 136.490891 109.913071 Z"/>
            <path id="path56" fill="#1d1d1b" stroke="none" d="M 165.7827 125.119347 C 165.7827 122.70211 163.735886 121.942268 161.893265 121.258408 C 160.44957 120.707527 159.053375 120.261139 159.053375 119.050133 C 159.053375 118.081329 159.789474 117.212273 161.394638 117.212273 C 162.524902 117.212273 163.441452 117.687172 164.310501 118.342537 L 165.336288 116.974823 C 164.362747 116.186493 162.971298 115.531128 161.37088 115.531128 C 158.61171 115.531128 156.982803 117.107796 156.982803 119.15461 C 156.982803 121.310661 158.982132 122.17498 160.791504 122.835083 C 162.182968 123.357475 163.707397 123.936852 163.707397 125.252319 C 163.707397 126.354095 162.866821 127.246902 161.185669 127.246902 C 159.661255 127.246902 158.530991 126.61528 157.429214 125.722481 L 156.351196 127.170921 C 157.557434 128.168213 159.295563 128.9328 161.109695 128.9328 C 164.130051 128.928055 165.7827 127.194656 165.7827 125.119347 Z"/>
            <path id="path57" fill="#1d1d1b" stroke="none" d="M 235.611938 115.844559 L 237.76799 115.844559 L 237.76799 128.614624 L 235.611938 128.614624 Z"/>
            <path id="path58" fill="#1d1d1b" stroke="none" d="M 172.796967 128.928055 C 173.585297 128.928055 174.454376 128.690598 175.161972 128.453156 L 174.744049 126.824234 C 174.321396 126.980957 173.746765 127.166168 173.295609 127.166168 C 171.823425 127.166168 171.324783 126.273354 171.324783 124.696693 L 171.324783 117.6017 L 174.767807 117.6017 L 174.767807 115.839813 L 171.324783 115.839813 L 171.324783 112.26857 L 169.510666 112.26857 L 169.249481 115.839813 L 167.250137 115.96804 L 167.250137 117.596939 L 169.140244 117.596939 L 169.140244 124.663452 C 169.144989 127.194656 170.066284 128.928055 172.796967 128.928055 Z"/>
            <path id="path59" fill="#1d1d1b" stroke="none" d="M 299.661652 115.844559 L 301.817688 115.844559 L 301.817688 128.614624 L 299.661652 128.614624 Z"/>
            <path id="path60" fill="#1d1d1b" stroke="none" d="M 238.214386 111.82692 C 238.214386 110.986343 237.559036 110.435455 236.718445 110.435455 C 235.877884 110.435455 235.222519 110.986343 235.222519 111.82692 C 235.222519 112.638992 235.877884 113.223122 236.718445 113.223122 C 237.554276 113.218369 238.214386 112.638992 238.214386 111.82692 Z"/>
            <path id="path61" fill="#1d1d1b" stroke="none" d="M 302.264099 111.82692 C 302.264099 110.986343 301.608734 110.435455 300.768158 110.435455 C 299.927582 110.435455 299.272217 110.986343 299.272217 111.82692 C 299.272217 112.638992 299.927582 113.223122 300.768158 113.223122 C 301.604004 113.218369 302.264099 112.638992 302.264099 111.82692 Z"/>
            <path id="path62" fill="#1d1d1b" stroke="none" d="M 194.99852 128.928055 C 196.494461 128.928055 197.862183 128.087463 198.859451 127.113937 L 198.940186 127.113937 L 199.125397 128.609863 L 200.911026 128.609863 L 200.911026 109.903564 L 198.731232 109.903564 L 198.731232 114.818787 L 198.835709 116.998566 C 197.705444 116.077263 196.731918 115.526382 195.264481 115.526382 C 192.348587 115.526382 189.722397 118.100334 189.722397 122.250954 C 189.712891 126.510803 191.792938 128.928055 194.99852 128.928055 Z M 195.625381 117.345245 C 196.679672 117.345245 197.648468 117.715668 198.726486 118.684464 L 198.726486 125.356796 C 197.672211 126.539307 196.651169 127.118668 195.468674 127.118668 C 193.236649 127.118668 191.944916 125.280815 191.944916 122.231964 C 191.949677 119.316071 193.578568 117.345245 195.625381 117.345245 Z"/>
            <path id="path63" fill="#1d1d1b" stroke="none" d="M 226.603088 127.009453 C 224.817474 127.009453 223.084091 126.145134 221.84935 124.853409 L 220.533875 126.377831 C 222.029816 127.92601 224.157364 128.928055 226.5746 128.928055 C 230.19809 128.928055 232.43486 126.748253 232.43486 124.01284 C 232.43486 121.462631 230.886688 120.280121 228.88736 119.415817 L 226.446365 118.366272 C 225.078674 117.786896 223.582718 117.160042 223.582718 115.502632 C 223.582718 113.95446 224.86972 112.980911 226.7883 112.980911 C 228.388718 112.980911 229.651947 113.612534 230.701477 114.609825 L 231.883972 113.189873 C 230.649231 111.926636 228.835114 111.062325 226.7883 111.062325 C 223.663467 111.062325 221.374451 113.004662 221.374451 115.635605 C 221.374451 118.157318 223.240799 119.392059 224.86972 120.075912 L 227.339188 121.153931 C 228.968094 121.890038 230.20282 122.440926 230.20282 124.202797 C 230.19809 125.883942 228.863617 127.009453 226.603088 127.009453 Z"/>
            <path id="path64" fill="#1d1d1b" stroke="none" d="M 246.38266 134.498611 C 250.348053 134.498611 252.846039 132.447052 252.846039 130.082062 C 252.846039 127.954498 251.350113 127.033195 248.377243 127.033195 L 245.907761 127.033195 C 244.174362 127.033195 243.651993 126.453812 243.651993 125.641739 C 243.651993 124.92939 244.022415 124.511475 244.464081 124.117317 C 245.043442 124.406998 245.751038 124.563721 246.38266 124.563721 C 248.980377 124.563721 251.06041 122.858841 251.06041 120.123413 C 251.06041 119.04538 250.613998 118.076599 250.006149 117.492462 L 252.632324 117.492462 L 252.632324 115.839813 L 248.192032 115.839813 C 247.721878 115.659348 247.090256 115.526382 246.377899 115.526382 C 243.775467 115.526382 241.57193 117.288254 241.57193 120.071167 C 241.57193 121.595604 242.384018 122.83033 243.224564 123.514191 L 243.224564 123.618668 C 242.569229 124.065071 241.83313 124.905655 241.83313 125.983673 C 241.83313 126.980957 242.331787 127.664818 242.963379 128.058975 L 242.963379 128.163452 C 241.809372 128.951797 241.097031 129.97757 241.097031 131.055588 C 241.101776 133.26387 243.257813 134.498611 246.38266 134.498611 Z M 246.38266 117.107796 C 247.878601 117.107796 249.0896 118.209564 249.0896 120.075912 C 249.0896 121.942268 247.854843 123.124779 246.38266 123.124779 C 244.910477 123.124779 243.67572 121.942268 243.67572 120.075912 C 243.67572 118.209564 244.886719 117.107796 246.38266 117.107796 Z M 244.307358 128.614624 C 244.858215 128.771332 245.461349 128.823578 245.959991 128.823578 L 248.168289 128.823578 C 249.825684 128.823578 250.742233 129.217743 250.742233 130.400238 C 250.742233 131.739456 249.13707 132.997925 246.696075 132.997925 C 244.383316 132.997925 242.991867 132.133621 242.991867 130.765915 C 242.991867 130.034561 243.390793 129.269989 244.307358 128.614624 Z"/>
            <path id="path65" fill="#1d1d1b" stroke="none" d="M 276.462799 125.304565 C 276.462799 127.588837 278.067963 128.928055 280.219269 128.928055 C 281.791168 128.928055 283.215881 128.087463 284.450592 127.090179 L 284.502869 127.090179 L 284.683319 128.614624 L 286.468933 128.614624 L 286.468933 120.788269 C 286.468933 117.60643 285.153473 115.531128 282.028625 115.531128 C 279.977051 115.531128 278.191437 116.423935 277.008942 117.188538 L 277.87326 118.684464 C 278.870514 118.00061 280.186005 117.316757 281.681946 117.316757 C 283.757263 117.316757 284.308136 118.893417 284.308136 120.522324 C 278.880035 121.130196 276.462799 122.521652 276.462799 125.304565 Z M 284.317627 121.942268 L 284.317627 125.489769 C 283.082916 126.596298 282.061859 127.199409 280.827148 127.199409 C 279.563904 127.199409 278.595093 126.596298 278.595093 125.147842 C 278.590363 123.518936 280.038788 122.464661 284.317627 121.942268 Z"/>
            <path id="path66" fill="#1d1d1b" stroke="none" d="M 319.521942 131.060349 C 319.521942 133.268631 321.677979 134.503372 324.802826 134.503372 C 328.768219 134.503372 331.261444 132.451797 331.261444 130.086792 C 331.261444 127.959251 329.765533 127.037949 326.797424 127.037949 L 324.327942 127.037949 C 322.594543 127.037949 322.072174 126.458572 322.072174 125.6465 C 322.072174 124.934143 322.437836 124.516235 322.884247 124.122055 C 323.463623 124.411751 324.171204 124.568466 324.802826 124.568466 C 327.400513 124.568466 329.475861 122.863571 329.475861 120.128159 C 329.475861 119.050133 329.029449 118.081329 328.426331 117.497215 L 331.05249 117.497215 L 331.05249 115.844559 L 326.612213 115.844559 C 326.137299 115.664108 325.505676 115.531128 324.798065 115.531128 C 322.195648 115.531128 319.987335 117.293015 319.987335 120.075912 C 319.987335 121.600342 320.804199 122.835083 321.644745 123.518936 L 321.644745 123.623421 C 320.98938 124.069824 320.253296 124.910393 320.253296 125.988426 C 320.253296 126.985703 320.751923 127.669556 321.383545 128.063736 L 321.383545 128.168213 C 320.234314 128.956543 319.521942 129.97757 319.521942 131.060349 Z M 324.802826 117.107796 C 326.298767 117.107796 327.509766 118.209564 327.509766 120.075912 C 327.509766 121.942268 326.275024 123.124779 324.802826 123.124779 C 323.330658 123.124779 322.095886 121.942268 322.095886 120.075912 C 322.095886 118.209564 323.306885 117.107796 324.802826 117.107796 Z M 322.727509 128.614624 C 323.283142 128.771332 323.886292 128.823578 324.384918 128.823578 L 326.593201 128.823578 C 328.24585 128.823578 329.167175 129.217743 329.167175 130.400238 C 329.167175 131.739456 327.566742 132.997925 325.121002 132.997925 C 322.808258 132.997925 321.416809 132.133621 321.416809 130.765915 C 321.412048 130.034561 321.810974 129.269989 322.727509 128.614624 Z"/>
            <path id="path67" fill="#1d1d1b" stroke="none" d="M 176.553421 125.304565 C 176.553421 127.588837 178.158585 128.928055 180.309875 128.928055 C 181.886551 128.928055 183.306488 128.087463 184.541229 127.090179 L 184.593475 127.090179 L 184.778687 128.614624 L 186.564316 128.614624 L 186.564316 120.788269 C 186.564316 117.60643 185.248825 115.531128 182.123993 115.531128 C 180.077179 115.531128 178.29155 116.423935 177.109055 117.188538 L 177.973373 118.684464 C 178.970657 118.00061 180.286133 117.316757 181.782074 117.316757 C 183.857376 117.316757 184.408264 118.893417 184.408264 120.522324 C 178.970657 121.130196 176.553421 122.521652 176.553421 125.304565 Z M 184.408264 121.942268 L 184.408264 125.489769 C 183.173523 126.596298 182.147736 127.199409 180.91301 127.199409 C 179.65451 127.199409 178.680969 126.596298 178.680969 125.147842 C 178.680969 123.518936 180.12468 122.464661 184.408264 121.942268 Z"/>
            <path id="path68" fill="#1d1d1b" stroke="none" d="M 316.340118 128.614624 L 316.340118 120.522324 C 316.340118 117.264511 315.133881 115.531128 312.450684 115.531128 C 310.688812 115.531128 309.378113 116.476181 308.167084 117.687172 L 308.091125 117.687172 L 307.905884 115.849319 L 306.12027 115.849319 L 306.12027 128.619354 L 308.276337 128.619354 L 308.276337 119.368317 C 309.563293 118.081329 310.456116 117.397491 311.771576 117.397491 C 313.452728 117.397491 314.188843 118.418518 314.188843 120.812012 L 314.188843 128.614624 L 316.340118 128.614624 Z"/>
            <path id="path69" fill="#1d1d1b" stroke="none" d="M 213.182434 121.206177 L 219.223145 121.206177 L 219.223145 122.863571 L 213.182434 122.863571 Z"/>
        </g>
    </g>
</svg>
